<svg xmlns="http://www.w3.org/2000/svg" xmlns:xlink="http://www.w3.org/1999/xlink" width="500" zoomAndPan="magnify" viewBox="0 0 375 374.999991" height="500" preserveAspectRatio="xMidYMid meet" version="1.0"><defs><clipPath id="04e9c91f03"><path d="M 45.605469 11.335938 L 329 11.335938 L 329 363 L 45.605469 363 Z M 45.605469 11.335938 " clip-rule="nonzero"/></clipPath><clipPath id="80660605f3"><path d="M 60 11.335938 L 329 11.335938 L 329 363 L 60 363 Z M 60 11.335938 " clip-rule="nonzero"/></clipPath><clipPath id="cc36d96b83"><path d="M 45.605469 23 L 85 23 L 85 62 L 45.605469 62 Z M 45.605469 23 " clip-rule="nonzero"/></clipPath></defs><g clip-path="url(#04e9c91f03)"><path fill="#d0c9de" d="M 328.15625 283.738281 C 327.8125 282.433594 327.257812 281.132812 326.25 280.242188 C 325.53125 279.605469 324.636719 279.214844 323.75 278.839844 C 313.273438 274.398438 302.539062 270.566406 291.617188 267.375 C 290.109375 266.933594 288.589844 266.503906 287.054688 266.148438 C 284.871094 261.417969 281.75 256.796875 279.167969 252.339844 C 278.292969 250.832031 277.414062 249.3125 276.839844 247.667969 C 276.078125 245.503906 275.867188 243.203125 275.621094 240.921875 C 276.714844 240.523438 277.800781 240.105469 278.878906 239.671875 C 285.027344 237.207031 291.148438 233.546875 295.777344 228.632812 C 296.839844 228.597656 298.082031 228.152344 298.933594 227.820312 C 299.308594 227.671875 299.667969 227.445312 299.90625 227.121094 C 300.378906 226.480469 300.3125 225.613281 300.214844 224.828125 C 300.085938 223.847656 299.929688 222.972656 299.753906 222.140625 C 299.871094 221.734375 299.972656 221.316406 300.066406 220.890625 C 300.542969 222.152344 301.179688 223.292969 302.539062 224.449219 C 303.519531 225.285156 308.554688 224.007812 307.390625 221.234375 C 306.757812 219.738281 306.269531 217.390625 305.484375 215.433594 C 306.460938 216.46875 307.714844 217.058594 309.253906 216.609375 C 310.4375 216.265625 310.734375 214.570312 310.363281 213.664062 C 309.761719 212.199219 309.207031 210.71875 308.539062 209.28125 C 307.226562 206.441406 306.644531 204.910156 304.992188 202.257812 C 303.664062 200.121094 302.25 197.800781 300.414062 196.011719 C 299.707031 182.742188 297.464844 169.554688 293.71875 156.804688 C 290.039062 144.300781 284.953125 132.261719 279.617188 120.371094 C 276.679688 113.824219 273.628906 107.238281 269.386719 101.414062 C 265.519531 96.117188 261.640625 93.53125 254.933594 93.285156 C 251.242188 93.152344 247.5625 93.660156 243.917969 94.25 C 241.636719 94.617188 239.363281 95.019531 237.09375 95.453125 C 233.484375 96.140625 229.886719 96.910156 226.308594 97.757812 C 230.300781 90.960938 232.898438 83.253906 233.6875 74.953125 C 236.691406 43.457031 212.566406 15.382812 179.804688 12.257812 C 169.429688 11.269531 159.433594 12.894531 150.519531 16.585938 C 140.285156 19.6875 131.203125 25.675781 124.328125 33.683594 C 116.683594 41.90625 111.582031 52.621094 110.433594 64.664062 C 110.136719 67.78125 110.117188 70.859375 110.355469 73.878906 L 96.53125 56.339844 C 93.410156 52.378906 90.382812 49.4375 85.757812 47.410156 L 85.53125 47.316406 C 84.949219 47.070312 84.382812 46.867188 83.835938 46.710938 C 83.515625 44.644531 82.808594 42.621094 81.890625 40.78125 C 81.726562 40.453125 81.558594 40.125 81.386719 39.800781 C 78.941406 35.210938 75.558594 30.921875 72.691406 26.648438 C 71.777344 25.292969 70.554688 23.851562 68.921875 23.835938 C 64.035156 23.78125 65.792969 29.953125 67.09375 33.535156 C 66.023438 30.816406 64.691406 28.140625 62.230469 26.445312 C 61.335938 25.828125 60.195312 25.492188 59.148438 25.777344 C 57.234375 26.296875 56.507812 29.003906 56.945312 30.679688 C 57.765625 33.824219 58.761719 35.765625 59.765625 38.839844 C 57.792969 35.652344 57.738281 33.339844 54.6875 31.347656 C 52.171875 29.707031 50.726562 34.128906 51.019531 35.820312 C 51.59375 39.109375 53.683594 42.78125 55.328125 45.652344 C 53.105469 44.425781 50.734375 43.464844 48.285156 42.804688 C 47.75 42.660156 47.171875 42.535156 46.660156 42.742188 C 45.90625 43.058594 45.609375 44.027344 45.789062 44.824219 C 45.972656 45.621094 46.511719 46.28125 47.035156 46.910156 C 48.917969 49.175781 50.917969 51.355469 53.105469 53.332031 C 55.039062 55.074219 57.007812 57.054688 59.105469 58.578125 C 59.535156 58.890625 59.976562 59.175781 60.429688 59.433594 C 59.335938 64.335938 62.695312 70.777344 64.796875 74.636719 C 70.5625 85.222656 77.664062 95.074219 85.882812 103.890625 C 86.976562 105.0625 88.195312 106.085938 89.484375 106.828125 C 90.28125 108.285156 91.273438 109.65625 92.253906 111 C 95.304688 115.179688 98.453125 119.34375 101.746094 123.410156 C 108.691406 131.992188 116.273438 140.125 124.910156 146.949219 C 127.355469 148.882812 129.953125 150.644531 132.703125 151.910156 C 132.824219 153.015625 132.960938 154.121094 133.105469 155.226562 C 133.519531 158.34375 134.015625 161.453125 134.585938 164.550781 C 136.484375 174.863281 139.171875 185.011719 142.179688 195.046875 C 143.492188 199.417969 144.882812 203.765625 146.273438 208.117188 C 146.234375 208.625 146.375 209.15625 146.730469 209.558594 C 146.785156 209.726562 146.839844 209.898438 146.894531 210.070312 C 147.242188 211.15625 147.671875 212.148438 148.171875 213.054688 C 150.261719 220.789062 152.8125 228.398438 155.804688 235.828125 C 156.089844 236.53125 156.375 237.238281 156.667969 237.941406 C 156.972656 239.925781 157.175781 243.386719 157.285156 244.019531 C 157.769531 246.785156 158.375 249.535156 159.089844 252.25 C 160.519531 257.683594 162.40625 262.996094 164.726562 268.117188 C 166.648438 272.367188 168.128906 276.789062 170.328125 280.871094 C 172.984375 285.804688 175.929688 290.582031 179.144531 295.171875 C 182.535156 300.003906 186.25 304.542969 190.183594 308.933594 C 192.449219 311.464844 194.84375 313.882812 197.363281 316.160156 C 198.546875 317.226562 199.757812 318.261719 200.992188 319.261719 C 201.792969 319.910156 202.542969 320.402344 203.269531 320.761719 C 204.109375 321.546875 205.039062 322.238281 206.023438 322.828125 C 215.765625 328.636719 226.132812 333.398438 236.886719 337.003906 C 236.9375 343.273438 237.863281 349.796875 241.390625 354.972656 C 244.921875 360.148438 251.613281 363.5625 257.589844 361.6875 C 260.496094 360.777344 262.929688 358.757812 265.027344 356.546875 C 273.109375 348.03125 277.070312 336.46875 280.007812 325.101562 C 280.085938 324.78125 280.171875 324.460938 280.25 324.140625 C 281.417969 324.464844 282.585938 324.777344 283.757812 325.074219 C 284.277344 331.320312 285.691406 337.753906 289.601562 342.648438 C 293.507812 347.546875 300.441406 350.449219 306.257812 348.128906 C 309.089844 347 311.363281 344.800781 313.289062 342.441406 C 320.707031 333.339844 323.789062 321.511719 325.859375 309.957031 C 326.757812 304.953125 327.5 299.921875 328.171875 294.886719 C 328.667969 291.175781 329.113281 287.355469 328.15625 283.738281 " fill-opacity="1" fill-rule="nonzero"/></g><g clip-path="url(#80660605f3)"><path fill="#f5eae5" d="M 328.15625 283.738281 C 327.8125 282.433594 327.257812 281.132812 326.25 280.242188 C 325.53125 279.605469 324.636719 279.214844 323.75 278.839844 C 313.273438 274.398438 302.539062 270.566406 291.617188 267.375 C 290.109375 266.933594 288.589844 266.503906 287.054688 266.148438 C 284.871094 261.417969 281.75 256.796875 279.167969 252.339844 C 278.292969 250.832031 277.414062 249.3125 276.839844 247.667969 C 276.078125 245.503906 275.867188 243.203125 275.621094 240.921875 C 275.585938 240.617188 275.554688 240.316406 275.519531 240.015625 C 274.644531 232.542969 272.492188 225.882812 269.414062 219.660156 C 268.945312 218.707031 268.453125 217.765625 267.941406 216.832031 C 266.730469 214.625 265.40625 212.46875 263.980469 210.347656 C 263.605469 207.589844 262.695312 204.921875 261.769531 202.292969 C 259.058594 194.570312 256.167969 186.90625 253.097656 179.320312 C 253.082031 179.082031 253.066406 178.839844 253.054688 178.597656 C 253.332031 179.121094 253.59375 179.605469 253.8125 180.046875 C 257.757812 187.863281 261.980469 195.84375 267.605469 202.570312 C 268.230469 203.3125 268.875 204.054688 269.601562 204.699219 C 269.820312 204.890625 270.039062 205.074219 270.273438 205.246094 C 270.871094 205.695312 271.496094 206.039062 272.132812 206.300781 C 272.601562 205.378906 273.097656 204.421875 273.628906 203.394531 C 274.09375 202.507812 274.554688 201.617188 275.140625 200.808594 C 277.550781 197.496094 281.109375 195.160156 284.953125 193.84375 C 288.535156 192.625 293.253906 191.765625 296.832031 193.425781 C 297.058594 193.53125 297.28125 193.648438 297.496094 193.769531 C 297.476562 193.574219 297.453125 193.375 297.429688 193.179688 C 296.789062 188.277344 294.949219 184.128906 293.023438 179.65625 C 291.191406 175.382812 289.332031 171.101562 287.433594 166.847656 C 285.371094 162.234375 283.105469 157.710938 280.636719 153.296875 C 280.011719 152.171875 279.171875 150.648438 278.035156 149.6875 C 277.125 148.210938 276.019531 146.789062 274.898438 145.3125 C 271.46875 140.78125 267.648438 136.460938 263.921875 132.109375 C 261.722656 129.542969 259.5 126.953125 257.164062 124.453125 C 252.75 119.726562 247.921875 115.335938 242.078125 112.0625 C 240.734375 111.308594 239.304688 110.925781 237.839844 110.832031 C 233.839844 109.171875 229.425781 108.75 225.015625 108.679688 C 225.644531 108.34375 226.308594 108.09375 227.019531 108.007812 C 226.089844 105.824219 225.007812 103.707031 223.78125 101.675781 C 224.675781 100.40625 225.519531 99.101562 226.308594 97.757812 C 230.300781 90.960938 232.898438 83.253906 233.6875 74.953125 C 236.691406 43.457031 212.566406 15.382812 179.804688 12.257812 C 169.429688 11.269531 159.433594 12.894531 150.519531 16.585938 C 157.265625 14.539062 164.515625 13.75 171.96875 14.460938 C 180.066406 15.234375 187.589844 17.703125 194.230469 21.480469 C 209.691406 30.28125 220.339844 46.179688 222.179688 64.339844 C 222.171875 64.339844 222.164062 64.335938 222.15625 64.335938 C 219.90625 63.960938 217.6875 64.34375 215.730469 65.308594 C 212.335938 66.980469 209.710938 70.398438 209.003906 74.664062 C 208.222656 79.355469 209.972656 83.835938 213.1875 86.460938 C 214.578125 87.597656 216.25 88.386719 218.105469 88.699219 C 218.480469 88.757812 218.851562 88.800781 219.222656 88.820312 C 210.84375 112.335938 187.339844 128.085938 161.371094 125.605469 C 151.253906 124.636719 142.023438 121.023438 134.304688 115.511719 C 134.398438 118.332031 134.496094 121.15625 134.589844 123.980469 C 134.671875 126.363281 135.199219 128.996094 134.011719 131.175781 C 133.410156 132.285156 132.742188 133.230469 132.503906 134.496094 C 132.242188 135.882812 132.332031 137.324219 132.4375 138.71875 C 132.660156 141.605469 132.941406 144.492188 133.195312 147.375 C 133.289062 148.460938 131.597656 148.453125 131.503906 147.375 C 131.246094 144.417969 130.949219 141.460938 130.730469 138.496094 C 130.554688 136.101562 130.601562 133.671875 131.832031 131.542969 C 132.5 130.386719 133.066406 129.511719 133.039062 128.136719 C 133.011719 126.667969 132.941406 125.199219 132.890625 123.734375 L 132.59375 114.933594 C 132.585938 114.699219 132.65625 114.515625 132.777344 114.378906 C 126.871094 109.851562 121.921875 104.175781 118.230469 97.726562 C 116.851562 95.515625 115.628906 93.199219 114.582031 90.800781 C 113.917969 89.273438 113.324219 87.714844 112.800781 86.125 C 111.0625 89.191406 108.960938 92.078125 106.992188 94.972656 C 104.027344 99.332031 100.957031 103.621094 97.550781 107.644531 C 96.847656 108.480469 95.65625 107.277344 96.355469 106.449219 C 99.65625 102.550781 102.625 98.390625 105.496094 94.171875 C 102.199219 97.710938 98.484375 100.84375 94.460938 103.527344 C 93.550781 104.136719 92.707031 102.667969 93.605469 102.066406 C 97.679688 99.347656 101.410156 96.144531 104.710938 92.527344 C 107.410156 89.566406 109.480469 86.152344 111.875 82.96875 C 111.113281 80.019531 110.597656 76.984375 110.355469 73.878906 L 96.53125 56.339844 C 93.410156 52.378906 90.382812 49.4375 85.757812 47.410156 L 85.53125 47.316406 C 84.949219 47.070312 84.382812 46.867188 83.835938 46.710938 C 84.082031 48.304688 84.097656 49.929688 83.800781 51.519531 C 83.148438 54.964844 80.550781 57.109375 77.636719 58.824219 C 72.375 61.917969 65.746094 62.488281 60.429688 59.433594 C 59.335938 64.335938 62.695312 70.777344 64.796875 74.636719 C 70.5625 85.222656 77.664062 95.074219 85.882812 103.890625 C 86.976562 105.0625 88.195312 106.085938 89.484375 106.828125 C 90.28125 108.285156 91.273438 109.65625 92.253906 111 C 95.304688 115.179688 98.453125 119.34375 101.746094 123.410156 C 108.691406 131.992188 116.273438 140.125 124.910156 146.949219 C 127.355469 148.882812 129.953125 150.644531 132.703125 151.910156 C 132.824219 153.015625 132.960938 154.121094 133.105469 155.226562 C 133.519531 158.34375 134.015625 161.453125 134.585938 164.550781 C 136.484375 174.863281 139.171875 185.011719 142.179688 195.046875 C 143.492188 199.417969 144.882812 203.765625 146.273438 208.117188 C 146.351562 207.0625 147.199219 206.101562 148.457031 206.570312 C 154.921875 208.984375 161.796875 209.972656 168.671875 210.132812 C 182.984375 210.464844 197.308594 207.492188 210.839844 203 C 224.902344 198.332031 238.460938 191.796875 250.582031 183.246094 C 252.496094 181.894531 254.308594 185.042969 252.414062 186.378906 C 245.554688 191.214844 238.230469 195.378906 230.644531 198.957031 C 216.839844 205.460938 202.085938 210.273438 186.972656 212.5 C 173.96875 214.417969 159.988281 214.734375 147.496094 210.070312 C 147.175781 209.949219 146.921875 209.773438 146.730469 209.558594 C 146.785156 209.726562 146.839844 209.898438 146.894531 210.070312 C 147.242188 211.15625 147.671875 212.148438 148.171875 213.054688 C 150.261719 220.789062 152.8125 228.398438 155.804688 235.828125 C 156.089844 236.53125 156.375 237.238281 156.667969 237.941406 C 156.972656 239.925781 157.175781 243.386719 157.285156 244.019531 C 157.769531 246.785156 158.375 249.535156 159.089844 252.25 C 160.519531 257.683594 162.40625 262.996094 164.726562 268.117188 C 166.648438 272.367188 168.128906 276.789062 170.328125 280.871094 C 172.984375 285.804688 175.929688 290.582031 179.144531 295.171875 C 182.535156 300.003906 186.25 304.542969 190.183594 308.933594 C 192.449219 311.464844 194.84375 313.882812 197.363281 316.160156 C 198.546875 317.226562 199.757812 318.261719 200.992188 319.261719 C 201.792969 319.910156 202.542969 320.402344 203.269531 320.761719 C 204.109375 321.546875 205.039062 322.238281 206.023438 322.828125 C 215.765625 328.636719 226.132812 333.398438 236.886719 337.003906 C 236.9375 343.273438 237.863281 349.796875 241.390625 354.972656 C 244.921875 360.148438 251.613281 363.5625 257.589844 361.6875 C 260.496094 360.777344 262.929688 358.757812 265.027344 356.546875 C 273.109375 348.03125 277.070312 336.46875 280.007812 325.101562 C 280.085938 324.78125 280.171875 324.460938 280.25 324.140625 C 281.417969 324.464844 282.585938 324.777344 283.757812 325.074219 C 284.277344 331.320312 285.691406 337.753906 289.601562 342.648438 C 293.507812 347.546875 300.441406 350.449219 306.257812 348.128906 C 309.089844 347 311.363281 344.800781 313.289062 342.441406 C 320.707031 333.339844 323.789062 321.511719 325.859375 309.957031 C 326.757812 304.953125 327.5 299.921875 328.171875 294.886719 C 328.667969 291.175781 329.113281 287.355469 328.15625 283.738281 " fill-opacity="1" fill-rule="nonzero"/></g><path fill="#d0c9de" d="M 111.875 82.96875 C 109.480469 86.152344 107.410156 89.566406 104.710938 92.527344 C 101.410156 96.144531 97.679688 99.347656 93.605469 102.066406 C 92.707031 102.667969 93.550781 104.136719 94.460938 103.527344 C 98.484375 100.84375 102.199219 97.710938 105.496094 94.171875 C 102.625 98.390625 99.65625 102.550781 96.355469 106.449219 C 95.65625 107.277344 96.847656 108.480469 97.550781 107.644531 C 100.957031 103.621094 104.027344 99.332031 106.992188 94.972656 C 108.960938 92.078125 111.0625 89.191406 112.800781 86.125 C 112.460938 85.082031 112.152344 84.03125 111.875 82.96875 " fill-opacity="1" fill-rule="nonzero"/><path fill="#bf1b2c" d="M 77.917969 60.425781 C 74.398438 62.988281 69.332031 65.007812 64.945312 64.027344 C 62.671875 63.515625 61.703125 67.015625 63.980469 67.523438 C 69.324219 68.71875 75.398438 66.710938 79.746094 63.554688 C 83.871094 60.570312 86.898438 56.441406 88.769531 51.726562 C 89.128906 50.8125 88.375 49.734375 87.5 49.492188 C 86.472656 49.210938 85.636719 49.847656 85.273438 50.761719 C 83.777344 54.527344 81.203125 58.027344 77.917969 60.425781 " fill-opacity="1" fill-rule="nonzero"/><g clip-path="url(#cc36d96b83)"><path fill="#14152d" d="M 83.835938 46.710938 C 83.515625 44.644531 82.808594 42.621094 81.890625 40.78125 C 81.726562 40.453125 81.558594 40.125 81.386719 39.800781 C 78.941406 35.210938 75.558594 30.921875 72.691406 26.648438 C 71.777344 25.292969 70.554688 23.851562 68.921875 23.835938 C 64.035156 23.78125 65.792969 29.953125 67.09375 33.535156 C 66.023438 30.816406 64.691406 28.140625 62.230469 26.445312 C 61.335938 25.828125 60.195312 25.492188 59.148438 25.777344 C 57.234375 26.296875 56.507812 29.003906 56.945312 30.679688 C 57.765625 33.824219 58.761719 35.765625 59.765625 38.839844 C 57.792969 35.652344 57.738281 33.339844 54.6875 31.347656 C 52.171875 29.707031 50.726562 34.128906 51.019531 35.820312 C 51.59375 39.109375 53.683594 42.78125 55.328125 45.652344 C 53.105469 44.425781 50.734375 43.464844 48.285156 42.804688 C 47.75 42.660156 47.171875 42.535156 46.660156 42.742188 C 45.90625 43.058594 45.609375 44.027344 45.789062 44.824219 C 45.972656 45.621094 46.511719 46.28125 47.035156 46.910156 C 48.917969 49.175781 50.917969 51.355469 53.105469 53.332031 C 55.039062 55.074219 57.007812 57.054688 59.105469 58.578125 C 59.535156 58.890625 59.976562 59.175781 60.429688 59.433594 C 65.746094 62.488281 72.375 61.917969 77.636719 58.824219 C 80.550781 57.109375 83.148438 54.964844 83.800781 51.519531 C 84.097656 49.929688 84.082031 48.304688 83.835938 46.710938 " fill-opacity="1" fill-rule="nonzero"/></g><path fill="#251e46" d="M 68.558594 49.554688 C 67.589844 51.746094 67.65625 54.40625 68.871094 56.492188 C 69.445312 57.476562 70.976562 56.585938 70.398438 55.601562 C 69.394531 53.875 69.40625 51.535156 70.398438 49.785156 C 70.511719 49.679688 70.59375 49.542969 70.644531 49.394531 C 70.765625 49.214844 70.902344 49.039062 71.050781 48.875 C 71.8125 48.035156 70.566406 46.777344 69.800781 47.625 C 69.683594 47.753906 69.574219 47.886719 69.46875 48.023438 C 67.867188 47.382812 66.496094 46.242188 65.542969 44.796875 C 64.742188 43.582031 63.464844 40.996094 64.886719 39.75 C 65.5625 39.15625 66.617188 39.261719 67.433594 39.394531 C 68.609375 39.589844 69.777344 39.875 70.933594 40.140625 C 73.453125 40.726562 75.949219 41.410156 78.414062 42.179688 C 79.503906 42.515625 79.96875 40.808594 78.886719 40.472656 C 76.554688 39.746094 74.199219 39.097656 71.824219 38.535156 C 70.664062 38.261719 69.496094 38 68.324219 37.769531 C 67.433594 37.59375 66.53125 37.464844 65.628906 37.589844 C 63.695312 37.859375 62.523438 39.457031 62.535156 41.367188 C 62.546875 43.207031 63.433594 44.984375 64.539062 46.414062 C 65.605469 47.785156 66.980469 48.867188 68.558594 49.554688 " fill-opacity="1" fill-rule="nonzero"/><path fill="#d0c9de" d="M 204.234375 272.292969 C 206.296875 272.617188 208.371094 272.871094 210.445312 273.066406 C 211.53125 273.167969 211.523438 271.476562 210.445312 271.375 C 194.652344 269.898438 178.777344 264.3125 167.824219 252.394531 C 167.25 251.769531 166.695312 251.128906 166.160156 250.476562 C 166.113281 250.496094 166.066406 250.511719 166.023438 250.53125 C 165.421875 250.78125 164.933594 250.992188 164.519531 251.121094 C 172.390625 260.878906 183.90625 267.367188 196.039062 270.578125 C 197.09375 270.855469 198.152344 271.113281 199.214844 271.347656 C 184.355469 271.644531 171.234375 262.167969 161.8125 251.226562 C 161.101562 250.398438 159.910156 251.601562 160.617188 252.421875 C 171.335938 264.875 186.539062 275.050781 203.691406 272.660156 C 203.972656 272.621094 204.148438 272.476562 204.234375 272.292969 " fill-opacity="1" fill-rule="nonzero"/><path fill="#d0c9de" d="M 299.753906 222.140625 C 299.871094 221.734375 299.972656 221.316406 300.066406 220.890625 C 299.566406 219.570312 299.242188 218.117188 298.445312 216.375 C 298.871094 218.582031 299.359375 220.25 299.753906 222.140625 " fill-opacity="1" fill-rule="nonzero"/><path fill="#d0c9de" d="M 272.132812 206.300781 C 271.496094 206.039062 270.871094 205.695312 270.273438 205.246094 C 270.039062 205.074219 269.820312 204.890625 269.601562 204.699219 C 268.875 204.054688 268.230469 203.3125 267.605469 202.570312 C 261.980469 195.84375 257.757812 187.863281 253.8125 180.046875 C 253.59375 179.605469 253.332031 179.121094 253.054688 178.597656 C 253.066406 178.839844 253.082031 179.082031 253.097656 179.320312 C 256.167969 186.90625 259.058594 194.570312 261.769531 202.292969 C 262.695312 204.921875 263.605469 207.589844 263.980469 210.347656 C 265.40625 212.46875 266.730469 214.625 267.941406 216.832031 C 268.046875 215.972656 268.425781 215.105469 268.6875 214.320312 C 269.71875 211.246094 270.8125 208.894531 272.132812 206.300781 " fill-opacity="1" fill-rule="nonzero"/><path fill="#d0c9de" d="M 294.359375 228.289062 C 291.734375 226.421875 290.714844 221.660156 290.015625 218.664062 C 290.75 221.816406 290.726562 222.601562 291.574219 225.695312 C 291.65625 226 291.742188 226.316406 291.710938 226.628906 C 291.59375 227.730469 290.246094 228.199219 289.132812 228.355469 C 288.128906 228.5 287.09375 228.59375 286.105469 228.375 C 283.375 227.761719 282.378906 226.152344 281.382812 223.902344 C 280.210938 221.253906 279.3125 218.527344 278.910156 215.652344 C 278.839844 216.125 278.566406 216.539062 278.292969 216.929688 C 277.957031 217.394531 277.714844 217.917969 277.277344 218.285156 C 276.78125 218.710938 276.214844 219.050781 275.632812 219.347656 C 274.691406 219.824219 273.6875 220.203125 272.640625 220.324219 C 271.738281 220.429688 270.601562 220.378906 269.792969 219.898438 C 269.671875 219.828125 269.546875 219.746094 269.414062 219.660156 C 272.492188 225.882812 274.644531 232.542969 275.519531 240.015625 C 275.554688 240.316406 275.585938 240.617188 275.621094 240.921875 C 276.714844 240.523438 277.800781 240.105469 278.878906 239.671875 C 285.027344 237.207031 291.148438 233.546875 295.777344 228.632812 C 295.230469 228.648438 294.734375 228.558594 294.359375 228.289062 " fill-opacity="1" fill-rule="nonzero"/><path fill="#bf1b2c" d="M 147.496094 210.070312 C 159.988281 214.734375 173.96875 214.417969 186.972656 212.5 C 202.085938 210.273438 216.839844 205.460938 230.644531 198.957031 C 238.230469 195.378906 245.554688 191.214844 252.414062 186.378906 C 254.308594 185.042969 252.496094 181.894531 250.582031 183.246094 C 238.460938 191.796875 224.902344 198.332031 210.839844 203 C 197.308594 207.492188 182.984375 210.464844 168.671875 210.132812 C 161.796875 209.972656 154.921875 208.984375 148.457031 206.570312 C 147.199219 206.101562 146.351562 207.0625 146.273438 208.117188 C 146.234375 208.625 146.375 209.15625 146.730469 209.558594 C 146.921875 209.773438 147.175781 209.949219 147.496094 210.070312 " fill-opacity="1" fill-rule="nonzero"/><path fill="#304da8" d="M 213.691406 164.894531 C 213.601562 168.640625 211.082031 171.34375 208.066406 170.929688 C 205.050781 170.519531 202.683594 167.148438 202.777344 163.402344 C 202.871094 159.65625 205.390625 156.953125 208.402344 157.363281 C 211.417969 157.777344 213.785156 161.148438 213.691406 164.894531 Z M 210.582031 123.863281 C 206.59375 130.539062 205.113281 138.453125 206.289062 146.109375 C 206.773438 149.292969 207.480469 152.429688 208.0625 155.59375 C 204.5625 156.476562 201.945312 160.160156 201.828125 164.917969 C 201.679688 170.785156 205.394531 176.066406 210.117188 176.710938 C 214.839844 177.355469 218.785156 173.121094 218.929688 167.25 C 219.078125 161.382812 215.367188 156.101562 210.644531 155.457031 C 210.367188 155.417969 210.089844 155.398438 209.820312 155.394531 C 208.722656 149.699219 207.222656 143.972656 207.757812 138.199219 C 208.460938 130.613281 211.976562 123.285156 217.566406 118.117188 C 220.625 115.285156 224.246094 113.117188 228.125 111.617188 C 229.199219 111.199219 228.734375 109.445312 227.640625 109.867188 C 220.609375 112.589844 214.476562 117.34375 210.582031 123.863281 " fill-opacity="1" fill-rule="nonzero"/><path fill="#4065b9" d="M 202.777344 163.402344 C 202.683594 167.148438 205.050781 170.519531 208.066406 170.929688 C 211.082031 171.34375 213.601562 168.640625 213.691406 164.894531 C 213.785156 161.148438 211.417969 157.777344 208.402344 157.363281 C 205.390625 156.953125 202.871094 159.65625 202.777344 163.402344 " fill-opacity="1" fill-rule="nonzero"/><path fill="#d0c9de" d="M 168.066406 17.035156 C 175.738281 17.769531 182.867188 20.109375 189.160156 23.6875 C 204.089844 32.1875 214.289062 47.683594 215.730469 65.308594 C 217.6875 64.34375 219.90625 63.960938 222.15625 64.335938 C 222.164062 64.335938 222.171875 64.339844 222.179688 64.339844 C 220.339844 46.179688 209.691406 30.28125 194.230469 21.480469 C 187.589844 17.703125 180.066406 15.234375 171.96875 14.460938 C 164.515625 13.75 157.265625 14.539062 150.519531 16.585938 C 140.285156 19.6875 131.203125 25.675781 124.328125 33.683594 C 135.140625 22.058594 151.046875 15.410156 168.066406 17.035156 " fill-opacity="1" fill-rule="nonzero"/><path fill="#d0c9de" d="M 158.027344 122.335938 C 141.011719 120.710938 126.652344 111.183594 118.230469 97.726562 C 121.921875 104.175781 126.871094 109.851562 132.777344 114.378906 C 132.65625 114.515625 132.585938 114.699219 132.59375 114.933594 L 132.890625 123.734375 C 132.941406 125.199219 133.011719 126.667969 133.039062 128.136719 C 133.066406 129.511719 132.5 130.386719 131.832031 131.542969 C 130.601562 133.671875 130.554688 136.101562 130.730469 138.496094 C 130.949219 141.460938 131.246094 144.417969 131.503906 147.375 C 131.597656 148.453125 133.289062 148.460938 133.195312 147.375 C 132.941406 144.492188 132.660156 141.605469 132.4375 138.71875 C 132.332031 137.324219 132.242188 135.882812 132.503906 134.496094 C 132.742188 133.230469 133.410156 132.285156 134.011719 131.175781 C 135.199219 128.996094 134.671875 126.363281 134.589844 123.980469 C 134.496094 121.15625 134.398438 118.332031 134.304688 115.511719 C 142.023438 121.023438 151.253906 124.636719 161.371094 125.605469 C 187.339844 128.085938 210.84375 112.335938 219.222656 88.820312 C 218.851562 88.800781 218.480469 88.757812 218.105469 88.699219 C 216.25 88.386719 214.578125 87.597656 213.1875 86.460938 C 205.578125 109.300781 183.003906 124.722656 158.027344 122.335938 " fill-opacity="1" fill-rule="nonzero"/><path fill="#251e46" d="M 209.003906 74.664062 C 209.710938 70.398438 212.335938 66.980469 215.730469 65.308594 C 214.289062 47.683594 204.089844 32.1875 189.160156 23.6875 C 182.867188 20.109375 175.738281 17.769531 168.066406 17.035156 C 151.046875 15.410156 135.140625 22.058594 124.328125 33.683594 C 116.683594 41.90625 111.582031 52.621094 110.433594 64.664062 C 110.136719 67.78125 110.117188 70.859375 110.355469 73.878906 C 110.597656 76.984375 111.113281 80.019531 111.875 82.96875 C 112.152344 84.03125 112.460938 85.082031 112.800781 86.125 C 113.324219 87.714844 113.917969 89.273438 114.582031 90.800781 C 115.628906 93.199219 116.851562 95.515625 118.230469 97.726562 C 126.652344 111.183594 141.011719 120.710938 158.027344 122.335938 C 183.003906 124.722656 205.578125 109.300781 213.1875 86.460938 C 209.972656 83.835938 208.222656 79.355469 209.003906 74.664062 " fill-opacity="1" fill-rule="nonzero"/><path fill="#14152d" d="M 189.160156 23.6875 C 193.796875 32.351562 196.015625 42.429688 195.011719 52.953125 C 192.304688 81.363281 167.085938 102.195312 138.695312 99.484375 C 129.738281 98.632812 121.53125 95.535156 114.582031 90.800781 C 115.628906 93.199219 116.851562 95.515625 118.230469 97.726562 C 126.652344 111.183594 141.011719 120.710938 158.027344 122.335938 C 183.003906 124.722656 205.578125 109.300781 213.1875 86.460938 C 209.972656 83.835938 208.222656 79.355469 209.003906 74.664062 C 209.710938 70.398438 212.335938 66.980469 215.730469 65.308594 C 214.289062 47.683594 204.089844 32.1875 189.160156 23.6875 " fill-opacity="1" fill-rule="nonzero"/><path fill="#543175" d="M 126.671875 40.867188 C 125.945312 48.46875 131.519531 55.21875 139.113281 55.945312 C 146.710938 56.667969 153.457031 51.09375 154.183594 43.492188 C 154.90625 35.890625 149.335938 29.140625 141.738281 28.414062 C 134.140625 27.691406 127.398438 33.265625 126.671875 40.867188 " fill-opacity="1" fill-rule="nonzero"/><path fill="#d0c9de" d="M 224.90625 66.730469 C 229.648438 68.660156 231.824219 74.023438 230.644531 78.851562 C 230.089844 81.125 228.84375 83.632812 227.105469 85.234375 C 225.316406 86.882812 222.964844 87.710938 220.632812 88.234375 C 219.570312 88.472656 220.023438 90.105469 221.082031 89.863281 C 223.808594 89.257812 226.554688 88.191406 228.558594 86.183594 C 230.527344 84.214844 231.960938 81.234375 232.441406 78.511719 C 233.433594 72.898438 230.703125 67.273438 225.355469 65.097656 C 224.347656 64.6875 223.910156 66.324219 224.90625 66.730469 " fill-opacity="1" fill-rule="nonzero"/><path fill="#d0c9de" d="M 135.785156 131.917969 C 140.539062 135.195312 146.179688 137.03125 151.792969 138.167969 C 156.808594 139.183594 161.941406 139.589844 167.054688 139.386719 C 177.410156 138.984375 187.667969 136.15625 196.769531 131.183594 C 201.917969 128.367188 206.671875 124.839844 210.859375 120.71875 C 211.636719 119.953125 210.441406 118.757812 209.664062 119.523438 C 195.285156 133.671875 173.976562 140.28125 154.101562 136.882812 C 147.988281 135.839844 141.789062 134.007812 136.636719 130.457031 C 135.738281 129.839844 134.890625 131.308594 135.785156 131.917969 " fill-opacity="1" fill-rule="nonzero"/><path fill="#d0c9de" d="M 261.054688 159.050781 C 257.21875 163.539062 253.949219 168.488281 251.324219 173.777344 C 245.105469 168.96875 239.5 163.394531 233.945312 157.851562 C 228.894531 152.8125 223.53125 147.808594 220.222656 141.382812 C 218.34375 137.730469 217.316406 133.644531 218.011719 129.546875 C 218.195312 128.480469 216.5625 128.023438 216.378906 129.09375 C 215.121094 136.515625 218.726562 143.316406 223.222656 148.949219 C 225.578125 151.894531 228.246094 154.546875 230.90625 157.207031 C 233.949219 160.253906 236.992188 163.296875 240.117188 166.257812 C 243.574219 169.53125 247.136719 172.695312 250.925781 175.589844 C 251.273438 175.851562 251.613281 175.773438 251.847656 175.546875 C 252.09375 175.5625 252.335938 175.464844 252.5 175.203125 C 260.363281 167.308594 268.480469 159.347656 278.710938 154.605469 C 279.699219 154.148438 278.839844 152.6875 277.859375 153.144531 C 269.203125 157.15625 262.019531 163.457031 255.25 170.085938 C 257.222656 166.730469 259.46875 163.539062 261.984375 160.5625 C 263.8125 158.398438 265.769531 156.347656 267.84375 154.421875 C 269.980469 152.433594 272.269531 150.199219 275.175781 149.472656 C 276.234375 149.210938 275.785156 147.578125 274.730469 147.84375 C 271.90625 148.546875 269.683594 150.488281 267.566406 152.386719 C 265.25 154.460938 263.074219 156.6875 261.054688 159.050781 " fill-opacity="1" fill-rule="nonzero"/><path fill="#bf1b2c" d="M 268.558594 200.667969 C 267.523438 202.75 270.652344 204.589844 271.691406 202.5 C 273.574219 198.710938 276.382812 195.394531 280.011719 193.175781 C 283.789062 190.859375 288.984375 189.371094 293.332031 190.726562 C 295.566406 191.425781 296.519531 187.921875 294.296875 187.230469 C 289.160156 185.628906 283.019531 187.1875 278.488281 189.855469 C 274.214844 192.371094 270.761719 196.242188 268.558594 200.667969 " fill-opacity="1" fill-rule="nonzero"/><path fill="#14152d" d="M 297.496094 193.769531 C 297.28125 193.648438 297.058594 193.53125 296.832031 193.425781 C 293.253906 191.765625 288.535156 192.625 284.953125 193.84375 C 281.109375 195.160156 277.550781 197.496094 275.140625 200.808594 C 274.554688 201.617188 274.09375 202.507812 273.628906 203.394531 C 273.097656 204.421875 272.601562 205.378906 272.132812 206.300781 C 270.8125 208.894531 269.71875 211.246094 268.6875 214.320312 C 268.425781 215.105469 268.046875 215.972656 267.941406 216.832031 C 268.453125 217.765625 268.945312 218.707031 269.414062 219.660156 C 269.546875 219.746094 269.671875 219.828125 269.792969 219.898438 C 270.601562 220.378906 271.738281 220.429688 272.640625 220.324219 C 273.6875 220.203125 274.691406 219.824219 275.632812 219.347656 C 276.214844 219.050781 276.78125 218.710938 277.277344 218.285156 C 277.714844 217.917969 277.957031 217.394531 278.292969 216.929688 C 278.566406 216.539062 278.839844 216.125 278.910156 215.652344 C 279.3125 218.527344 280.210938 221.253906 281.382812 223.902344 C 282.378906 226.152344 283.375 227.761719 286.105469 228.375 C 287.09375 228.59375 288.128906 228.5 289.132812 228.355469 C 290.246094 228.199219 291.59375 227.730469 291.710938 226.628906 C 291.742188 226.316406 291.65625 226 291.574219 225.695312 C 290.726562 222.601562 290.75 221.816406 290.015625 218.664062 C 290.714844 221.660156 291.734375 226.421875 294.359375 228.289062 C 294.734375 228.558594 295.230469 228.648438 295.777344 228.632812 C 296.839844 228.597656 298.082031 228.152344 298.933594 227.820312 C 299.308594 227.671875 299.667969 227.445312 299.90625 227.121094 C 300.378906 226.480469 300.3125 225.613281 300.214844 224.828125 C 300.085938 223.847656 299.929688 222.972656 299.753906 222.140625 C 299.359375 220.25 298.871094 218.582031 298.445312 216.375 C 299.242188 218.117188 299.566406 219.570312 300.066406 220.890625 C 300.542969 222.152344 301.179688 223.292969 302.539062 224.449219 C 303.519531 225.285156 308.554688 224.007812 307.390625 221.234375 C 306.757812 219.738281 306.269531 217.390625 305.484375 215.433594 C 306.460938 216.46875 307.714844 217.058594 309.253906 216.609375 C 310.4375 216.265625 310.734375 214.570312 310.363281 213.664062 C 309.761719 212.199219 309.207031 210.71875 308.539062 209.28125 C 307.226562 206.441406 306.644531 204.910156 304.992188 202.257812 C 303.664062 200.121094 302.25 197.800781 300.414062 196.011719 C 300.117188 195.722656 299.8125 195.445312 299.492188 195.1875 C 298.855469 194.675781 298.203125 194.175781 297.496094 193.769531 " fill-opacity="1" fill-rule="nonzero"/><path fill="#f5eae5" d="M 316.996094 290.652344 C 317.210938 292.945312 319.613281 294.851562 321.90625 294.289062 C 323.984375 293.785156 325.523438 291.441406 325.015625 289.332031 C 324.503906 287.179688 322.089844 285.640625 319.925781 286.132812 C 318.097656 286.546875 316.855469 288.167969 316.585938 289.941406 C 316.8125 290.09375 316.96875 290.355469 316.996094 290.652344 " fill-opacity="1" fill-rule="nonzero"/><path fill="#d0c9de" d="M 271.878906 286.113281 C 266.457031 292.542969 261.566406 299.566406 258.589844 307.488281 C 257.667969 309.953125 257.007812 311.402344 259.304688 312.84375 C 260.816406 313.792969 262.566406 314.601562 264.1875 315.359375 C 265.355469 315.902344 268.199219 317.320312 270.425781 317.464844 C 271.667969 317.542969 272.71875 317.226562 273.179688 316.136719 C 275.390625 310.90625 277.886719 305.796875 280.652344 300.835938 C 282.113281 298.21875 283.945312 295.839844 285.847656 293.53125 C 287.429688 291.617188 289.863281 290.265625 287.0625 288.421875 C 282.753906 285.589844 276.226562 280.964844 271.878906 286.113281 " fill-opacity="1" fill-rule="nonzero"/><path fill="#d0c9de" d="M 286.378906 266.601562 C 272.871094 273.289062 261.488281 284.066406 253.964844 297.125 C 251.847656 300.804688 250.054688 304.664062 248.574219 308.644531 C 248.195312 309.664062 249.832031 310.105469 250.207031 309.09375 C 255.324219 295.308594 264.632812 283.132812 276.53125 274.511719 C 279.914062 272.066406 283.492188 269.914062 287.234375 268.0625 C 288.207031 267.582031 287.351562 266.121094 286.378906 266.601562 " fill-opacity="1" fill-rule="nonzero"/><path fill="#d0c9de" d="M 319.925781 286.132812 C 322.089844 285.640625 324.503906 287.179688 325.015625 289.332031 C 325.523438 291.441406 323.984375 293.785156 321.90625 294.289062 C 319.613281 294.851562 317.210938 292.945312 316.996094 290.652344 C 316.96875 290.355469 316.8125 290.09375 316.585938 289.941406 C 316.855469 288.167969 318.097656 286.546875 319.925781 286.132812 Z M 285.859375 324.007812 C 289.96875 309.097656 302.921875 299.53125 315.585938 291.972656 C 316.425781 294.472656 318.890625 296.339844 321.640625 296.046875 C 324.773438 295.714844 327.167969 292.527344 326.746094 289.433594 C 326.316406 286.308594 323.125 283.984375 320.027344 284.40625 C 317.085938 284.804688 314.898438 287.550781 314.835938 290.449219 C 301.757812 298.25 288.46875 308.167969 284.226562 323.558594 C 283.9375 324.609375 285.570312 325.058594 285.859375 324.007812 " fill-opacity="1" fill-rule="nonzero"/><path fill="#d0c9de" d="M 279.308594 322.664062 C 271.292969 320.957031 263.246094 318.867188 255.875 315.324219 C 255.921875 315.292969 255.964844 315.261719 256.011719 315.226562 C 255.433594 314.960938 254.859375 314.691406 254.289062 314.417969 C 254.257812 314.441406 254.226562 314.460938 254.195312 314.484375 C 251.648438 313.160156 249.1875 311.648438 246.851562 309.902344 C 238.558594 303.699219 230.785156 296.605469 224.644531 288.222656 C 221.117188 283.40625 218.144531 278.191406 215.847656 272.679688 C 215.757812 272.453125 215.601562 272.304688 215.417969 272.21875 C 215.90625 272.316406 216.453125 272.054688 216.402344 271.425781 C 216.363281 270.949219 216.332031 270.472656 216.304688 269.992188 C 216.339844 269.933594 216.363281 269.859375 216.382812 269.78125 C 218.542969 260.257812 222.28125 251.449219 227.242188 243.054688 C 229.605469 239.046875 232.136719 235.136719 234.707031 231.261719 C 237.140625 227.597656 239.660156 223.976562 242.515625 220.625 C 245.695312 216.886719 249.28125 213.511719 253.449219 210.90625 C 254.371094 210.328125 253.519531 208.863281 252.59375 209.445312 C 245.101562 214.136719 239.542969 221.121094 234.628906 228.351562 C 229.164062 236.386719 223.761719 244.664062 219.855469 253.589844 C 218.46875 256.753906 217.300781 259.996094 216.324219 263.296875 C 217.066406 251.0625 221.652344 239.136719 229.492188 229.640625 C 230.179688 228.804688 228.988281 227.605469 228.296875 228.445312 C 218.445312 240.375 213.46875 255.988281 214.710938 271.425781 C 214.742188 271.777344 214.941406 272.019531 215.199219 272.140625 C 214.609375 272.019531 213.933594 272.441406 214.21875 273.128906 C 216.824219 279.378906 220.242188 285.195312 224.3125 290.539062 C 218.644531 295.160156 213.628906 300.582031 209.460938 306.632812 C 207.023438 310.171875 204.902344 313.921875 203.105469 317.828125 C 202.652344 318.808594 204.113281 319.671875 204.566406 318.683594 C 209.34375 308.292969 216.511719 299.085938 225.335938 291.859375 C 226.542969 293.382812 227.804688 294.863281 229.109375 296.308594 C 228.722656 296.566406 228.347656 296.886719 227.976562 297.261719 C 222.082031 303.265625 216.675781 309.894531 213.113281 317.574219 C 212.007812 319.960938 211.242188 321.355469 213.421875 322.96875 C 214.859375 324.027344 216.542969 324.96875 218.101562 325.84375 C 219.226562 326.472656 221.953125 328.101562 224.164062 328.414062 C 225.398438 328.585938 226.472656 328.351562 227.011719 327.296875 C 229.609375 322.246094 232.480469 317.339844 235.613281 312.601562 C 236.960938 310.5625 238.546875 308.703125 240.207031 306.914062 C 244.121094 310.183594 248.289062 313.148438 252.742188 315.589844 C 246.023438 320.835938 240.433594 327.273438 237.449219 335.589844 C 237.082031 336.617188 238.714844 337.058594 239.082031 336.039062 C 242.019531 327.851562 247.644531 321.558594 254.359375 316.449219 C 255.828125 317.199219 257.324219 317.894531 258.855469 318.523438 C 265.296875 321.164062 272.066406 322.847656 278.859375 324.296875 C 279.921875 324.523438 280.375 322.890625 279.308594 322.664062 " fill-opacity="1" fill-rule="nonzero"/><path fill="#d0c9de" d="M 273.964844 246.824219 C 265.835938 243.792969 257.050781 246.019531 249.335938 249.21875 C 241.875 252.316406 234.519531 256.117188 228.011719 260.933594 C 224.351562 263.644531 220.972656 266.710938 218.054688 270.214844 C 217.363281 271.042969 218.554688 272.25 219.25 271.410156 C 224.226562 265.433594 230.511719 260.808594 237.25 257.003906 C 244.238281 253.054688 251.828125 249.273438 259.742188 247.679688 C 264.351562 246.75 269.078125 246.796875 273.515625 248.453125 C 274.535156 248.835938 274.976562 247.199219 273.964844 246.824219 " fill-opacity="1" fill-rule="nonzero"/></svg>